<?xml version="1.0" standalone="no"?>
<!DOCTYPE svg PUBLIC "-//W3C//DTD SVG 1.1//EN"
  "http://www.w3.org/Graphics/SVG/1.1/DTD/svg11.dtd">
<svg width="57mm" height="56.999999999999986mm" viewBox="-28.5 -28.499999999999993 57 56.999999999999986" xmlns="http://www.w3.org/2000/svg" version="1.1">
	<title>svgOutput</title>
	<desc>made with tinkercad</desc>
<path d="M 27.309999465942383 -17.170999526977536 L 27.413284301757812 -16.38400077819824 L 27.45199966430664 -16.089000701904293 L 27.5 -14.999999999999996 L 27.45199966430664 -13.911000251770016 L 27.309999465942383 -12.829000473022457 L 27.073999404907227 -11.765000343322752 L 26.746000289916992 -10.725000381469725 L 26.32900047302246 -9.717000007629393 L 25.825000762939453 -8.749999999999998 L 25.46957778930664 -8.19200038909912 L 25.23900032043457 -7.829999923706053 L 24.576000213623047 -6.965000152587889 L 23.839000701904297 -6.1609997749328596 L 23.03499984741211 -5.423999786376952 L 22.170000076293945 -4.761000156402587 L 21.25 -4.175000190734862 L 20.283000946044922 -3.6710000038146964 L 19.274999618530273 -3.253999948501586 L 18.235000610351562 -2.926000118255615 L 17.17099952697754 -2.6900000572204585 L 16.384000778198242 -2.586715459823608 L 16.089000701904297 -2.54800009727478 L 15 -2.4999999999999996 L 14.51200008392334 -2.4519999027252193 L 14.043000221252441 -2.3099999427795406 L 13.611000061035156 -2.0789999961853023 L 13.232000350952148 -1.7680000066757198 L 12.920999526977539 -1.3890000581741329 L 12.6899995803833 -0.9570000171661374 L 12.54800033569336 -0.4880000054836271 L 12.5 1.1102230246251565e-16 L 12.54800033569336 0.4880000054836273 L 12.6899995803833 0.9570000171661376 L 12.920999526977539 1.3890000581741333 L 13.232000350952148 1.7680000066757198 L 13.611000061035156 2.0789999961853023 L 13.967373847961426 2.2695610523223873 L 14.043000221252441 2.3099999427795406 L 14.51200008392334 2.4519999027252193 L 15 2.4999999999999996 L 16.089000701904297 2.54800009727478 L 16.384000778198242 2.586715459823608 L 17.17099952697754 2.6900000572204585 L 18.235000610351562 2.926000118255615 L 19.274999618530273 3.253999948501586 L 20.283000946044922 3.6710000038146964 L 21.25 4.175000190734862 L 22.170000076293945 4.761000156402587 L 23.03499984741211 5.423999786376952 L 23.839000701904297 6.1609997749328596 L 24.576000213623047 6.965000152587889 L 25.23900032043457 7.829999923706053 L 25.46957778930664 8.19200038909912 L 25.825000762939453 8.749999999999998 L 26.32900047302246 9.717000007629393 L 26.746000289916992 10.725000381469725 L 27.073999404907227 11.765000343322752 L 27.309999465942383 12.829000473022457 L 27.45199966430664 13.911000251770016 L 27.5 14.999999999999996 L 27.45199966430664 16.089000701904293 L 27.413284301757812 16.38400077819824 L 27.309999465942383 17.170999526977536 L 27.073999404907227 18.23500061035156 L 26.746000289916992 19.27499961853027 L 26.32900047302246 20.28300094604492 L 25.825000762939453 21.249999999999996 L 25.23900032043457 22.17000007629394 L 24.576000213623047 23.034999847412106 L 23.839000701904297 23.839000701904293 L 23.03499984741211 24.57600021362304 L 22.170000076293945 25.239000320434563 L 21.25 25.825000762939446 L 20.283000946044922 26.329000473022454 L 19.274999618530273 26.746000289916985 L 18.235000610351562 27.07399940490722 L 17.17099952697754 27.309999465942376 L 16.384000778198242 27.413284301757805 L 16.089000701904297 27.451999664306634 L 15 27.499999999999993 L 13.91100025177002 27.451999664306634 L 12.829000473022461 27.309999465942376 L 11.765000343322754 27.07399940490722 L 10.725000381469727 26.746000289916985 L 9.717000007629395 26.329000473022454 L 8.75 25.825000762939446 L 8.192000389099121 25.469577789306634 L 7.829999923706055 25.239000320434563 L 6.965000152587891 24.57600021362304 L 6.160999774932861 23.839000701904293 L 5.423999786376953 23.034999847412106 L 4.761000156402588 22.17000007629394 L 4.175000190734863 21.249999999999996 L 3.6710000038146973 20.28300094604492 L 3.253999948501587 19.27499961853027 L 2.9260001182556152 18.23500061035156 L 2.690000057220459 17.170999526977536 L 2.5867154598236084 16.38400077819824 L 2.5480000972747803 16.089000701904293 L 2.5 14.999999999999996 L 2.4519999027252197 14.512000083923336 L 2.309999942779541 14.043000221252438 L 2.0789999961853027 13.611000061035153 L 1.7680000066757202 13.232000350952145 L 1.3890000581741333 12.920999526977536 L 0.9570000171661377 12.689999580383297 L 0.4880000054836273 12.548000335693356 L 0 12.499999999999996 L -0.4880000054836273 12.548000335693356 L -0.9570000171661377 12.689999580383297 L -1.3890000581741333 12.920999526977536 L -1.7680000066757202 13.232000350952145 L -2.0789999961853027 13.611000061035153 L -2.2695610523223877 13.967373847961422 L -2.309999942779541 14.043000221252438 L -2.4519999027252197 14.512000083923336 L -2.5 14.999999999999996 L -2.5480000972747803 16.089000701904293 L -2.5867154598236084 16.38400077819824 L -2.690000057220459 17.170999526977536 L -2.9260001182556152 18.23500061035156 L -3.253999948501587 19.27499961853027 L -3.6710000038146973 20.28300094604492 L -4.175000190734863 21.249999999999996 L -4.761000156402588 22.17000007629394 L -5.423999786376953 23.034999847412106 L -6.160999774932861 23.839000701904293 L -6.965000152587891 24.57600021362304 L -7.829999923706055 25.239000320434563 L -8.192000389099121 25.469577789306634 L -8.75 25.825000762939446 L -9.717000007629395 26.329000473022454 L -10.725000381469727 26.746000289916985 L -11.765000343322754 27.07399940490722 L -12.829000473022461 27.309999465942376 L -13.91100025177002 27.451999664306634 L -15 27.499999999999993 L -16.089000701904297 27.451999664306634 L -16.384000778198242 27.413284301757805 L -17.17099952697754 27.309999465942376 L -18.235000610351562 27.07399940490722 L -19.274999618530273 26.746000289916985 L -20.283000946044922 26.329000473022454 L -21.25 25.825000762939446 L -22.170000076293945 25.239000320434563 L -23.03499984741211 24.57600021362304 L -23.839000701904297 23.839000701904293 L -24.576000213623047 23.034999847412106 L -25.23900032043457 22.17000007629394 L -25.825000762939453 21.249999999999996 L -26.32900047302246 20.28300094604492 L -26.746000289916992 19.27499961853027 L -27.073999404907227 18.23500061035156 L -27.309999465942383 17.170999526977536 L -27.413284301757812 16.38400077819824 L -27.45199966430664 16.089000701904293 L -27.5 14.999999999999996 L -27.45199966430664 13.911000251770016 L -27.309999465942383 12.829000473022457 L -27.073999404907227 11.765000343322752 L -26.746000289916992 10.725000381469725 L -26.32900047302246 9.717000007629393 L -25.825000762939453 8.749999999999998 L -25.46957778930664 8.19200038909912 L -25.23900032043457 7.829999923706053 L -24.576000213623047 6.965000152587889 L -23.839000701904297 6.1609997749328596 L -23.03499984741211 5.423999786376952 L -22.170000076293945 4.761000156402587 L -21.25 4.175000190734862 L -20.283000946044922 3.6710000038146964 L -19.274999618530273 3.253999948501586 L -18.235000610351562 2.926000118255615 L -17.17099952697754 2.6900000572204585 L -16.384000778198242 2.586715459823608 L -16.089000701904297 2.54800009727478 L -15 2.4999999999999996 L -14.51200008392334 2.4519999027252193 L -14.043000221252441 2.3099999427795406 L -13.611000061035156 2.0789999961853023 L -13.232000350952148 1.7680000066757198 L -12.920999526977539 1.3890000581741333 L -12.6899995803833 0.9570000171661376 L -12.54800033569336 0.4880000054836273 L -12.5 1.1102230246251565e-16 L -12.54800033569336 -0.4880000054836271 L -12.6899995803833 -0.9570000171661374 L -12.920999526977539 -1.3890000581741329 L -13.232000350952148 -1.7680000066757198 L -13.611000061035156 -2.0789999961853023 L -13.967373847961426 -2.2695610523223873 L -14.043000221252441 -2.3099999427795406 L -14.51200008392334 -2.4519999027252193 L -15 -2.4999999999999996 L -16.089000701904297 -2.54800009727478 L -16.384000778198242 -2.586715459823608 L -17.17099952697754 -2.6900000572204585 L -18.235000610351562 -2.926000118255615 L -19.274999618530273 -3.253999948501586 L -20.283000946044922 -3.6710000038146964 L -21.25 -4.175000190734862 L -22.170000076293945 -4.761000156402587 L -23.03499984741211 -5.423999786376952 L -23.839000701904297 -6.1609997749328596 L -24.576000213623047 -6.965000152587889 L -25.23900032043457 -7.829999923706053 L -25.46957778930664 -8.19200038909912 L -25.825000762939453 -8.749999999999998 L -26.32900047302246 -9.717000007629393 L -26.746000289916992 -10.725000381469725 L -27.073999404907227 -11.765000343322752 L -27.309999465942383 -12.829000473022457 L -27.45199966430664 -13.911000251770016 L -27.5 -14.999999999999996 L -27.45199966430664 -16.089000701904293 L -27.413284301757812 -16.38400077819824 L -27.309999465942383 -17.170999526977536 L -27.073999404907227 -18.23500061035156 L -26.746000289916992 -19.27499961853027 L -26.32900047302246 -20.28300094604492 L -25.825000762939453 -21.249999999999996 L -25.23900032043457 -22.17000007629394 L -24.576000213623047 -23.034999847412106 L -23.839000701904297 -23.839000701904293 L -23.03499984741211 -24.57600021362304 L -22.170000076293945 -25.239000320434563 L -21.25 -25.825000762939446 L -20.283000946044922 -26.329000473022454 L -19.274999618530273 -26.746000289916985 L -18.235000610351562 -27.07399940490722 L -17.17099952697754 -27.309999465942376 L -16.384000778198242 -27.413284301757805 L -16.089000701904297 -27.451999664306634 L -15 -27.499999999999993 L -13.91100025177002 -27.451999664306634 L -12.829000473022461 -27.309999465942376 L -11.765000343322754 -27.07399940490722 L -10.725000381469727 -26.746000289916985 L -9.717000007629395 -26.329000473022454 L -8.75 -25.825000762939446 L -8.192000389099121 -25.469577789306634 L -7.829999923706055 -25.239000320434563 L -6.965000152587891 -24.57600021362304 L -6.160999774932861 -23.839000701904293 L -5.423999786376953 -23.034999847412106 L -4.761000156402588 -22.17000007629394 L -4.175000190734863 -21.249999999999996 L -3.6710000038146973 -20.28300094604492 L -3.253999948501587 -19.27499961853027 L -2.9260001182556152 -18.23500061035156 L -2.690000057220459 -17.170999526977536 L -2.5867154598236084 -16.38400077819824 L -2.5480000972747803 -16.089000701904293 L -2.5 -14.999999999999996 L -2.4519999027252197 -14.512000083923336 L -2.309999942779541 -14.043000221252438 L -2.2695610523223877 -13.967373847961422 L -2.0789999961853027 -13.611000061035153 L -1.7680000066757202 -13.232000350952145 L -1.3890000581741333 -12.920999526977536 L -0.9570000171661377 -12.689999580383297 L -0.4880000054836273 -12.548000335693356 L 0 -12.499999999999996 L 0.4880000054836273 -12.548000335693356 L 0.9570000171661377 -12.689999580383297 L 1.3890000581741333 -12.920999526977536 L 1.7680000066757202 -13.232000350952145 L 2.0789999961853027 -13.611000061035153 L 2.2695610523223877 -13.967373847961422 L 2.309999942779541 -14.043000221252438 L 2.4519999027252197 -14.512000083923336 L 2.5 -14.999999999999996 L 2.5480000972747803 -16.089000701904293 L 2.5867154598236084 -16.38400077819824 L 2.690000057220459 -17.170999526977536 L 2.9260001182556152 -18.23500061035156 L 3.253999948501587 -19.27499961853027 L 3.6710000038146973 -20.28300094604492 L 4.175000190734863 -21.249999999999996 L 4.761000156402588 -22.17000007629394 L 5.423999786376953 -23.034999847412106 L 6.160999774932861 -23.839000701904293 L 6.965000152587891 -24.57600021362304 L 7.829999923706055 -25.239000320434563 L 8.192000389099121 -25.469577789306634 L 8.75 -25.825000762939446 L 9.717000007629395 -26.329000473022454 L 10.725000381469727 -26.746000289916985 L 11.765000343322754 -27.07399940490722 L 12.829000473022461 -27.309999465942376 L 13.91100025177002 -27.451999664306634 L 15 -27.499999999999993 L 16.089000701904297 -27.451999664306634 L 16.384000778198242 -27.413284301757805 L 17.17099952697754 -27.309999465942376 L 18.235000610351562 -27.07399940490722 L 19.274999618530273 -26.746000289916985 L 20.283000946044922 -26.329000473022454 L 21.25 -25.825000762939446 L 22.170000076293945 -25.239000320434563 L 23.03499984741211 -24.57600021362304 L 23.839000701904297 -23.839000701904293 L 24.576000213623047 -23.034999847412106 L 25.23900032043457 -22.17000007629394 L 25.825000762939453 -21.249999999999996 L 26.32900047302246 -20.28300094604492 L 26.746000289916992 -19.27499961853027 L 27.073999404907227 -18.23500061035156 L 27.309999465942383 -17.170999526977536 z" fill="none" stroke="rgb(255,0,0)" stroke-width="0.001mm" />
</svg>